# xmcd
#
# Track frame offsets: 
#        182
#        11300
#        26725
#        37180
#        51172
#        60880
#        73100
#        83572
#        96215
#        106710
#        118557
#        127745
#        140330
#        153030
#        165297
#        175030
#        186572
#        196912
#
# Disc length: 2824 seconds
#
# Revision: 4
# Processed by: cddbd v1.5.1PL0 Copyright (c) Steve Scherf et al.
# Submitted via: ExactAudioCopy v0.95a5
#
DISCID=d90b0612
DTITLE=Various Artist - Texas Music, Vol. 1:  Postwar Blues Combos
DYEAR=1994
DGENRE=Blues
TTITLE0=T-Bone Walker, his Guitar and his Orchestra - Strollin' With Bon
TTITLE0=es
TTITLE1=Melvin Daniels, with King Curtis Orchestra - I'll Be There
TTITLE2=Harlem Stars - All Right Baby
TTITLE3=Charles Brown and his Band - Black Night
TTITLE4=Frankie Lee Sims - She Likes To Boogie Real Low
TTITLE5=Goree Carter and his Hepcats - Rock Awhile
TTITLE6=Albert Collins and his Rhythm Rockers - Collins Shuffle
TTITLE7=Clarence "Gatemouth" Brown, his Guitar and his Orchestra - Boogi
TTITLE7=e Rambler
TTITLE8=Big Walter and his Thunderbirds - Pack Fair and Square
TTITLE9=Lester Williams - Wintertime Blues
TTITLE10=Johnny Copeland - Rock and Roll Lily
TTITLE11=Pee Wee Crayton and his Guitar - Poppa Stoppa
TTITLE12=Amos Milburn - Chicken-Shack Boogie
TTITLE13=Ivory Joe Hunter - Since I Met You Baby
TTITLE14=Clarence Green and the Rhythmaires - Crazy Strings
TTITLE15=Zuzu Bollin - Headlight Blues
TTITLE16=Bobby Bland - I'll Take Care of You
TTITLE17=Freddie King - Going Down
EXTD=LABEL =Rhino Records Inc.\nID =R271781\nUPC =08122-71781-23\nC
EXTD=OPYRIGHT =1994
EXTT0=
EXTT1=
EXTT2=
EXTT3=
EXTT4=
EXTT5=
EXTT6=
EXTT7=
EXTT8=
EXTT9=
EXTT10=
EXTT11=
EXTT12=
EXTT13=
EXTT14=
EXTT15=
EXTT16=
EXTT17=
PLAYORDER=
